<?xml version="1.0" encoding="UTF-8"?>
<svg xmlns="http://www.w3.org/2000/svg" width="980" height="408" viewBox="0 0 980 408" role="img" aria-labelledby="title desc">
  <title id="title">图2：尾巴格折起后仍是独立面</title>
  <desc id="desc">这类“中间横排 + 右下尾巴”的结构，关键看尾巴是不是占到最后一个空方向。 右下角这一格并不会“撞回来”，而是正好补齐最后一个面。</desc>
  <defs>
    <marker id="arrowHead" markerWidth="8" markerHeight="8" refX="6" refY="3" orient="auto">
      <path d="M0,0 L6,3 L0,6 Z" fill="#4d6fff" />
    </marker>
  </defs>
  <style>
    .bg { fill: #f8fbff; }
    .panel { fill: #ffffff; stroke: #dbe6ff; stroke-width: 2; }
    .title-main { font: 700 28px 'Arial', sans-serif; fill: #18305b; }
    .title-sub { font: 400 16px 'Arial', sans-serif; fill: #4b628c; }
    .panel-title { font: 700 18px 'Arial', sans-serif; fill: #24416f; }
    .cell-base { fill: #edf3ff; stroke: #5577c8; stroke-width: 2.2; }
    .cell-center { fill: #d8e6ff; stroke: #2e5bc4; stroke-width: 2.6; }
    .cell-final { fill: #fff2da; stroke: #d28b1f; stroke-width: 2.2; }
    .cell-hidden { fill: #f4f6fb; stroke: #b6c0d7; stroke-width: 2; stroke-dasharray: 7 6; }
    .cell-id { font: 700 18px 'Arial', sans-serif; fill: #1f355d; }
    .guide-line { stroke: #86a3ff; stroke-width: 2.5; stroke-dasharray: 6 6; opacity: 0.9; }
    .slot-base { fill: #f2f6ff; stroke: #c8d8ff; stroke-width: 2; }
    .slot-collision { fill: #fff0ef; stroke: #e56b64; stroke-width: 2.6; }
    .slot-label { font: 700 14px 'Arial', sans-serif; fill: #567; }
    .slot-value { font: 700 17px 'Arial', sans-serif; fill: #1d3258; }
    .callout-ok { fill: #eef9f1; stroke: #7bc38f; stroke-width: 1.8; }
    .callout-warn { fill: #fff5f3; stroke: #f1a497; stroke-width: 1.8; }
    .callout-icon { font: 700 20px 'Arial', sans-serif; fill: #1f355d; }
    .callout-text { font: 400 16px 'Arial', sans-serif; fill: #2f4568; }
  </style>
  <rect width="980" height="408" class="bg" rx="28" />
  <rect x="40" y="78" width="420" height="242" rx="24" class="panel" />
  <rect x="488" y="78" width="420" height="242" rx="24" class="panel" />
  <text x="40" y="24" class="title-main">图2：尾巴格折起后仍是独立面</text><text x="40" y="50" class="title-sub">这类“中间横排 + 右下尾巴”的结构，关键看尾巴是不是占到最后一个空方向。</text><text x="58" y="100" class="panel-title">展开图</text><text x="506" y="100" class="panel-title">折后方向</text>
  <rect x="154" y="133" width="48" height="48" rx="12" class="cell-base" /><text x="178" y="163" text-anchor="middle" class="cell-id">1</text><rect x="202" y="133" width="48" height="48" rx="12" class="cell-base" /><text x="226" y="163" text-anchor="middle" class="cell-id">2</text><rect x="202" y="181" width="48" height="48" rx="12" class="cell-center" /><text x="226" y="211" text-anchor="middle" class="cell-id">3</text><rect x="250" y="181" width="48" height="48" rx="12" class="cell-base" /><text x="274" y="211" text-anchor="middle" class="cell-id">4</text><rect x="298" y="181" width="48" height="48" rx="12" class="cell-base" /><text x="322" y="211" text-anchor="middle" class="cell-id">5</text><rect x="250" y="229" width="48" height="48" rx="12" class="cell-base" /><text x="274" y="259" text-anchor="middle" class="cell-id">6</text>
  <line x1="178" y1="157" x2="226" y2="157" class="guide-line" marker-end="url(#arrowHead)" /><line x1="226" y1="157" x2="226" y2="205" class="guide-line" marker-end="url(#arrowHead)" /><line x1="226" y1="205" x2="274" y2="205" class="guide-line" marker-end="url(#arrowHead)" /><line x1="274" y1="205" x2="322" y2="205" class="guide-line" marker-end="url(#arrowHead)" /><line x1="274" y1="205" x2="274" y2="253" class="guide-line" marker-end="url(#arrowHead)" />
  <rect x="620" y="112" width="68" height="54" rx="14" class="slot-base" /><text x="636" y="132" class="slot-label">上</text><text x="654" y="150" text-anchor="middle" class="slot-value">2</text><rect x="536" y="186" width="68" height="54" rx="14" class="slot-base" /><text x="552" y="206" class="slot-label">左</text><text x="570" y="224" text-anchor="middle" class="slot-value">1</text><rect x="620" y="186" width="68" height="54" rx="14" class="slot-base" /><text x="636" y="206" class="slot-label">前</text><text x="654" y="224" text-anchor="middle" class="slot-value">3</text><rect x="704" y="186" width="68" height="54" rx="14" class="slot-base" /><text x="720" y="206" class="slot-label">右</text><text x="738" y="224" text-anchor="middle" class="slot-value">4</text><rect x="620" y="260" width="68" height="54" rx="14" class="slot-base" /><text x="636" y="280" class="slot-label">下</text><text x="654" y="298" text-anchor="middle" class="slot-value">6</text><rect x="788" y="186" width="68" height="54" rx="14" class="slot-base" /><text x="804" y="206" class="slot-label">后</text><text x="822" y="224" text-anchor="middle" class="slot-value">5</text>
  <rect x="40" y="330" width="868" height="60" rx="18" class="callout-ok" />
  <text x="58" y="368" class="callout-icon">✓</text>
  <text x="94" y="368" class="callout-text">右下角这一格并不会“撞回来”，而是正好补齐最后一个面。</text>
</svg>